<?xml version="1.0" standalone="no"?>
<!DOCTYPE svg PUBLIC "-//W3C//DTD SVG 20010904//EN"
 "http://www.w3.org/TR/2001/REC-SVG-20010904/DTD/svg10.dtd">
<svg version="1.0" xmlns="http://www.w3.org/2000/svg"
 width="789.000000pt" height="717.000000pt" viewBox="0 0 789.000000 717.000000"
 preserveAspectRatio="xMidYMid meet">

<g transform="translate(0.000000,717.000000) scale(0.100000,-0.100000)"
fill="#000000" stroke="none">
<path d="M4840 6554 c-311 -67 -584 -429 -692 -919 -30 -136 -33 -455 -5 -585
80 -375 261 -625 532 -735 91 -37 253 -46 354 -20 301 78 543 369 656 789 74
276 71 562 -10 842 -81 276 -244 496 -437 587 -111 53 -270 69 -398 41z"/>
<path d="M2789 6545 c-169 -43 -330 -160 -425 -309 -85 -135 -156 -331 -185
-506 -21 -129 -18 -452 5 -560 34 -157 67 -254 130 -385 131 -268 277 -412
491 -482 67 -22 99 -26 200 -27 136 -1 187 10 289 62 79 41 208 158 260 236
194 292 260 700 176 1088 -90 414 -344 775 -611 868 -83 28 -249 36 -330 15z"/>
<path d="M6486 5264 c-239 -58 -491 -297 -641 -609 -162 -336 -179 -759 -43
-1045 54 -112 187 -250 291 -299 91 -44 214 -60 330 -43 243 35 524 286 666
593 99 215 141 398 141 611 0 213 -32 354 -113 497 -131 232 -390 353 -631
295z"/>
<path d="M1140 5254 c-107 -28 -173 -69 -259 -160 -164 -173 -232 -393 -217
-699 12 -256 98 -526 227 -717 54 -79 186 -216 272 -282 123 -94 241 -136 384
-136 178 0 261 36 393 169 112 112 167 206 202 347 20 77 23 115 23 284 0 218
-16 319 -80 497 -122 340 -394 628 -660 699 -65 18 -215 17 -285 -2z"/>
<path d="M3850 4133 c-195 -19 -396 -86 -555 -183 -166 -102 -266 -194 -453
-418 -221 -266 -334 -370 -524 -481 -46 -26 -127 -74 -180 -105 -54 -31 -133
-84 -176 -116 -224 -168 -400 -446 -459 -720 -25 -118 -25 -391 0 -508 35
-163 108 -331 209 -484 147 -221 391 -398 638 -462 158 -41 237 -51 400 -50
186 1 276 19 590 119 380 122 507 144 711 125 147 -14 240 -36 481 -115 443
-146 664 -164 988 -78 186 49 357 151 516 308 328 323 449 855 297 1305 -106
316 -335 559 -708 756 -60 31 -144 80 -185 108 -99 67 -279 247 -427 426 -148
179 -255 281 -390 370 -168 111 -334 171 -543 195 -121 15 -156 16 -230 8z"/>
</g>
</svg>
